<svg width="117" height="100" viewBox="0 0 117 100" fill="none" xmlns="http://www.w3.org/2000/svg">
<g filter="url(#filter0_d_2616_54545)">
<rect x="10.5195" y="4" width="80" height="80" rx="40" fill="#FAE095"/>
<g clip-path="url(#clip0_2616_54545)">
<path d="M69.6451 72.1525C69.6451 69.6798 68.5427 67.5197 66.632 65.9749C65.1487 64.7759 63.3794 63.9794 61.6118 63.296C59.4616 62.4662 56.6946 62.1153 55.2595 60.1165C54.0939 58.4936 53.906 56.3351 53.871 54.4178C53.8444 53.0193 53.9176 51.6059 54.1088 50.2207H45.1525C45.3438 51.6075 45.4169 53.0193 45.3903 54.4178C45.3537 56.3351 45.1675 58.4952 44.0018 60.1165C42.5667 62.1153 39.7997 62.4662 37.6496 63.296C35.882 63.9794 34.1126 64.7759 32.6294 65.9749C30.7187 67.5197 29.6162 69.6814 29.6162 72.1525C29.6162 72.1525 35.4097 80.4087 50.3224 80.0279C64.9907 79.6521 69.6451 72.1525 69.6451 72.1525Z" fill="#E9934A"/>
<g style="mix-blend-mode:multiply" opacity="0.7">
<path d="M49.3578 56.0246C51.1038 55.8516 52.5971 55.3361 53.8742 54.5729C53.8742 54.5197 53.8725 54.4681 53.8708 54.4149C53.8442 53.0164 53.9174 51.603 54.1086 50.2178H45.1523C45.3436 51.6046 45.4167 53.0164 45.3901 54.4149C45.3868 54.5662 45.3835 54.7192 45.3785 54.8738C46.5309 55.4708 47.8479 55.8749 49.3528 56.0229H49.3594L49.3578 56.0246Z" fill="#E9934A"/>
</g>
<path d="M66.632 65.9735C65.1487 64.7746 63.3794 63.9781 61.6118 63.2946C61.4804 63.2447 61.3474 63.1949 61.2127 63.1483C60.93 65.2518 59.1673 74.2397 49.7338 74.2397C40.3002 74.2397 39.0764 65.3051 38.8602 62.8789C38.4445 63.0103 38.0371 63.1433 37.6496 63.293C35.882 63.9764 34.1126 64.7729 32.6294 65.9719C30.7187 67.5167 29.6162 69.6784 29.6162 72.1495C29.6162 72.1495 35.4097 80.4057 50.3224 80.0249C64.9907 79.6491 69.6451 72.1495 69.6451 72.1495C69.6451 69.6768 68.5427 67.5167 66.632 65.9719V65.9735Z" fill="#968F37"/>
<g style="mix-blend-mode:multiply" opacity="0.3">
<path d="M66.6319 65.9737C65.1487 64.7747 63.3793 63.9782 61.6117 63.2948C61.4803 63.2449 61.3473 63.195 61.2126 63.1484C60.9299 65.252 59.1673 74.2399 49.7337 74.2399C49.5225 74.2399 49.3163 74.2349 49.1151 74.2266C48.4034 75.1328 47.5919 75.9726 46.694 76.696C45.7628 77.4459 44.7384 78.0795 43.6592 78.5933C43.1288 78.8461 42.585 79.0705 42.0312 79.2634C44.4058 79.7989 47.1596 80.1065 50.324 80.0267C64.9923 79.6509 69.6468 72.1513 69.6468 72.1513C69.6468 69.6786 68.5443 67.5185 66.6336 65.9737H66.6319Z" fill="#968F37"/>
</g>
<path d="M49.7043 75.001C59.2576 75.001 61.6022 66.5552 62.1377 63.5039C61.9614 63.434 61.7868 63.3642 61.6106 63.296C61.4792 63.2461 61.3462 63.1962 61.2115 63.1497C61.2115 63.1563 61.2098 63.1613 61.2081 63.168C61.2081 63.1796 61.2048 63.1912 61.2031 63.2029C61.2031 63.2112 61.2015 63.2195 61.1998 63.2262C61.1998 63.2378 61.1965 63.2478 61.1948 63.2594C61.1948 63.2677 61.1915 63.2777 61.1915 63.286C61.1915 63.2977 61.1882 63.3076 61.1865 63.3193C61.1865 63.3293 61.1832 63.3376 61.1815 63.3475C61.1799 63.3592 61.1782 63.3708 61.1765 63.3825C61.1765 63.3924 61.1732 63.4008 61.1716 63.4107C61.1699 63.4224 61.1682 63.4357 61.1649 63.4473C61.1649 63.4573 61.1616 63.4673 61.1599 63.4773C61.1582 63.4906 61.1549 63.5039 61.1533 63.5172C61.1533 63.5271 61.1499 63.5355 61.1483 63.5454C61.1449 63.5621 61.1433 63.5804 61.14 63.597C61.14 63.6036 61.1383 63.6103 61.1366 63.6153C61.1333 63.6386 61.1283 63.6635 61.1233 63.6884C61.1233 63.6968 61.12 63.7051 61.1183 63.7134C61.115 63.73 61.1117 63.7466 61.11 63.7649C61.1084 63.7749 61.1067 63.7866 61.105 63.7965C61.1017 63.8132 61.1 63.8281 61.0967 63.8447C61.0951 63.8547 61.0934 63.8664 61.0901 63.878C61.0867 63.8946 61.0834 63.9113 61.0801 63.9279C61.0784 63.9395 61.0751 63.9512 61.0734 63.9628C61.0701 63.9794 61.0668 63.9944 61.0635 64.011C61.0618 64.0227 61.0585 64.036 61.0568 64.0476C61.0535 64.0642 61.0502 64.0809 61.0468 64.0992C61.0452 64.1108 61.0418 64.1225 61.0402 64.1341C61.0369 64.154 61.0319 64.174 61.0285 64.194C61.0269 64.2039 61.0252 64.2139 61.0219 64.2239C61.0152 64.2538 61.0086 64.2838 61.0036 64.3137C61.0036 64.3187 61.0019 64.3237 61.0003 64.327C60.9953 64.3536 60.9886 64.3802 60.9836 64.4068C60.982 64.4168 60.9787 64.4284 60.977 64.4384C60.972 64.4584 60.967 64.48 60.9637 64.4999C60.9604 64.5132 60.9587 64.5249 60.9554 64.5382C60.9504 64.5581 60.9471 64.5781 60.9421 64.598C60.9387 64.6113 60.9354 64.6246 60.9321 64.6379C60.9271 64.6579 60.9221 64.6762 60.9188 64.6961C60.9155 64.7095 60.9121 64.7244 60.9088 64.7377C60.9038 64.7577 60.8988 64.7776 60.8939 64.7976C60.8905 64.8109 60.8872 64.8242 60.8839 64.8375C60.8789 64.8591 60.8722 64.8807 60.8672 64.9023C60.8639 64.9156 60.8606 64.9273 60.8573 64.9406C60.8506 64.9672 60.844 64.9938 60.8373 65.0204C60.8356 65.0287 60.8323 65.037 60.8307 65.0453C60.8207 65.0803 60.8124 65.1152 60.8024 65.1518C60.8007 65.1618 60.7974 65.1701 60.7941 65.18C60.7874 65.2067 60.7791 65.2333 60.7725 65.2599C60.7691 65.2732 60.7658 65.2865 60.7608 65.2998C60.7542 65.3231 60.7475 65.3463 60.7409 65.3696C60.7375 65.3846 60.7325 65.3995 60.7292 65.4129C60.7226 65.4345 60.7159 65.4577 60.7093 65.4794C60.7043 65.4943 60.701 65.5093 60.696 65.5259C60.6893 65.5475 60.6827 65.5708 60.676 65.5924C60.671 65.6074 60.6677 65.6224 60.6627 65.639C60.6561 65.6623 60.6477 65.6856 60.6411 65.7088C60.6361 65.7238 60.6328 65.7371 60.6278 65.7521C60.6195 65.7787 60.6112 65.8036 60.6028 65.8302C60.5995 65.8435 60.5945 65.8552 60.5912 65.8685C60.5663 65.945 60.5413 66.0231 60.5164 66.1013C60.5114 66.1146 60.5081 66.1262 60.5031 66.1395C60.4948 66.1661 60.4848 66.1927 60.4765 66.2194C60.4715 66.2343 60.4665 66.2493 60.4615 66.2642C60.4532 66.2892 60.4449 66.3141 60.4349 66.3391C60.4299 66.3557 60.4233 66.3707 60.4183 66.3873C60.41 66.4122 60.4016 66.4355 60.3917 66.4605C60.385 66.4771 60.38 66.4937 60.3734 66.5087C60.3651 66.5336 60.3551 66.5586 60.3468 66.5835C60.3418 66.5985 60.3351 66.6151 60.3301 66.6301C60.3202 66.6567 60.3102 66.6833 60.3002 66.7099C60.2952 66.7249 60.2886 66.7382 60.2836 66.7531C60.2719 66.7847 60.2586 66.8163 60.247 66.8479C60.2437 66.8579 60.2403 66.8662 60.2353 66.8762C60.2187 66.9178 60.2021 66.9593 60.1855 67.0009C60.1821 67.0092 60.1788 67.0175 60.1755 67.0275C60.1622 67.0608 60.1489 67.0924 60.1356 67.1256C60.1289 67.1406 60.1239 67.1539 60.1173 67.1689C60.1056 67.1955 60.094 67.2237 60.084 67.2503C60.0774 67.267 60.0707 67.2819 60.0641 67.2986C60.0524 67.3252 60.0425 67.3501 60.0308 67.3767C60.0242 67.3933 60.0158 67.41 60.0092 67.4266C59.9976 67.4515 59.9859 67.4781 59.9759 67.5048C59.9693 67.5214 59.961 67.538 59.9543 67.5546C59.9427 67.5813 59.931 67.6079 59.9177 67.6345C59.9111 67.6511 59.9028 67.6661 59.8961 67.6827C59.8828 67.711 59.8695 67.7409 59.8562 67.7692C59.8496 67.7825 59.8446 67.7958 59.8379 67.8091C59.818 67.8506 59.7997 67.8905 59.7797 67.9321C59.7797 67.9321 59.7797 67.9354 59.7781 67.9371C59.7581 67.9803 59.7365 68.0219 59.7149 68.0651C59.7082 68.0768 59.7032 68.0901 59.6966 68.1017C59.6816 68.1317 59.6666 68.1616 59.6517 68.1932C59.6434 68.2082 59.635 68.2248 59.6284 68.2398C59.6151 68.2664 59.6001 68.293 59.5868 68.3212C59.5785 68.3379 59.5685 68.3545 59.5602 68.3711C59.5469 68.3977 59.5319 68.4227 59.5186 68.4493C59.5103 68.4659 59.5004 68.4825 59.492 68.5008C59.4771 68.5274 59.4638 68.554 59.4488 68.5806C59.4405 68.5973 59.4305 68.6139 59.4222 68.6305C59.4072 68.6588 59.3923 68.6854 59.3756 68.7137C59.3673 68.7286 59.359 68.7436 59.349 68.7602C59.3307 68.7918 59.3124 68.8234 59.2942 68.855C59.2875 68.8667 59.2825 68.8766 59.2759 68.8883C59.2509 68.9315 59.226 68.9731 59.201 69.0163C59.196 69.023 59.1927 69.0313 59.1877 69.0379C59.1661 69.0729 59.1462 69.1078 59.1245 69.1427C59.1162 69.1577 59.1062 69.171 59.0979 69.1859C59.0813 69.2142 59.063 69.2425 59.0447 69.2707C59.0347 69.2874 59.0248 69.3023 59.0148 69.319C58.9982 69.3456 58.9815 69.3722 58.9649 69.3971C58.9533 69.4137 58.9433 69.4304 58.9316 69.447C58.915 69.4736 58.8984 69.4986 58.8801 69.5235C58.8685 69.5401 58.8585 69.5568 58.8468 69.5734C58.8285 69.6 58.8119 69.6249 58.7936 69.6515C58.782 69.6682 58.772 69.6831 58.7604 69.6998C58.7404 69.728 58.7205 69.7563 58.7005 69.7846C58.6905 69.7979 58.6822 69.8112 58.6722 69.8245C58.6456 69.8627 58.6174 69.901 58.5891 69.9392C58.5874 69.9425 58.5841 69.9459 58.5824 69.9475C58.5525 69.9891 58.5209 70.0307 58.491 70.0722C58.4827 70.0839 58.4727 70.0955 58.4644 70.1072C58.4428 70.1371 58.4195 70.167 58.3962 70.1953C58.3846 70.2103 58.3729 70.2252 58.3613 70.2402C58.3413 70.2668 58.3214 70.2918 58.2998 70.3184C58.2864 70.335 58.2748 70.3499 58.2615 70.3666C58.2416 70.3915 58.2216 70.4165 58.2016 70.4414C58.1883 70.458 58.175 70.473 58.1617 70.4896C58.1418 70.5146 58.1202 70.5395 58.1002 70.5645C58.0869 70.5794 58.0736 70.5961 58.0603 70.611C58.0387 70.636 58.0171 70.6626 57.9954 70.6875C57.9838 70.7025 57.9705 70.7158 57.9572 70.7307C57.9323 70.759 57.9056 70.789 57.8807 70.8172C57.8707 70.8272 57.8624 70.8388 57.8524 70.8488C57.8175 70.8887 57.7809 70.927 57.7443 70.9669C57.7394 70.9719 57.7344 70.9785 57.7294 70.9835C57.6978 71.0168 57.6679 71.05 57.6363 71.0833C57.6246 71.0966 57.6113 71.1099 57.598 71.1215C57.5731 71.1465 57.5481 71.1731 57.5232 71.198C57.5082 71.213 57.4949 71.228 57.48 71.2413C57.4567 71.2645 57.4334 71.2878 57.4084 71.3111C57.3935 71.3261 57.3785 71.341 57.3619 71.356C57.3386 71.3793 57.3153 71.4009 57.2904 71.4242C57.2754 71.4391 57.2588 71.4541 57.2438 71.4691C57.2189 71.4924 57.1939 71.5156 57.1707 71.5372C57.1557 71.5506 57.1407 71.5655 57.1241 71.5788C57.0975 71.6038 57.0709 71.627 57.0443 71.652C57.031 71.6636 57.0177 71.6769 57.0027 71.6886C56.9678 71.7202 56.9329 71.7501 56.8963 71.78C56.8896 71.785 56.8846 71.79 56.878 71.795C56.8364 71.8299 56.7932 71.8665 56.7516 71.9014C56.74 71.9114 56.7283 71.9197 56.7167 71.9297C56.6851 71.9546 56.6535 71.9812 56.6236 72.0062C56.6086 72.0195 56.592 72.0311 56.5753 72.0444C56.5471 72.066 56.5205 72.0877 56.4922 72.1093C56.4756 72.1226 56.4573 72.1359 56.439 72.1492C56.4124 72.1691 56.3841 72.1908 56.3575 72.2107C56.3392 72.224 56.3209 72.2373 56.3026 72.2506C56.2744 72.2706 56.2478 72.2905 56.2195 72.3105C56.2012 72.3238 56.1829 72.3371 56.1646 72.3487C56.1363 72.3687 56.1064 72.3903 56.0765 72.4103C56.0598 72.4219 56.0416 72.4335 56.0249 72.4468C55.9917 72.4701 55.9584 72.4917 55.9235 72.515C55.9102 72.5233 55.8969 72.5333 55.8819 72.5416C55.8337 72.5732 55.7855 72.6048 55.7372 72.6348C55.7323 72.6381 55.7273 72.6414 55.7206 72.6447C55.6774 72.6713 55.6341 72.6996 55.5892 72.7262C55.5726 72.7362 55.556 72.7462 55.5394 72.7561C55.5061 72.7761 55.4728 72.7961 55.4396 72.816C55.4196 72.8276 55.4013 72.8376 55.3814 72.8493C55.3498 72.8676 55.3182 72.8858 55.2866 72.9025C55.2667 72.9141 55.245 72.9258 55.2251 72.9374C55.1935 72.954 55.1619 72.9707 55.1303 72.9889C55.1087 73.0006 55.0887 73.0106 55.0671 73.0222C55.0355 73.0388 55.0023 73.0555 54.9707 73.0721C54.9507 73.0821 54.9291 73.0937 54.9091 73.1037C54.8742 73.122 54.8393 73.1386 54.8044 73.1552C54.7861 73.1636 54.7678 73.1735 54.7478 73.1818C54.7046 73.2035 54.6597 73.2234 54.6148 73.2434C54.6048 73.2484 54.5948 73.2533 54.5832 73.2583C54.5283 73.2833 54.4718 73.3082 54.4169 73.3332C54.402 73.3398 54.387 73.3465 54.372 73.3515C54.3304 73.3697 54.2889 73.3864 54.2473 73.4047C54.2257 73.413 54.2057 73.4213 54.1841 73.4296C54.1475 73.4446 54.1109 73.4595 54.0744 73.4728C54.0511 73.4812 54.0278 73.4911 54.0045 73.4995C53.9696 73.5128 53.933 73.5261 53.8981 73.5394C53.8748 73.5477 53.8499 73.5577 53.8266 73.566C53.79 73.5793 53.7551 73.5909 53.7185 73.6042C53.6952 73.6125 53.6703 73.6208 53.647 73.6292C53.6088 73.6425 53.5722 73.6541 53.5339 73.6674C53.5106 73.6757 53.4874 73.6824 53.4657 73.6907C53.4242 73.704 53.3809 73.7173 53.3377 73.7306C53.3194 73.7372 53.2995 73.7422 53.2812 73.7489C53.2196 73.7672 53.1565 73.7855 53.0933 73.8038C53.0899 73.8038 53.0849 73.8054 53.0816 73.8071C53.0234 73.8237 52.9636 73.8403 52.9037 73.8553C52.8821 73.8603 52.8621 73.8653 52.8405 73.8719C52.7973 73.8836 52.754 73.8936 52.7108 73.9052C52.6859 73.9118 52.6609 73.9168 52.636 73.9235C52.5961 73.9335 52.5545 73.9418 52.5146 73.9518C52.488 73.9584 52.4614 73.9634 52.4348 73.9684C52.3948 73.9767 52.3549 73.985 52.315 73.9933C52.2884 73.9983 52.2602 74.005 52.2336 74.01C52.192 74.0183 52.1521 74.0249 52.1105 74.0332C52.0839 74.0382 52.0573 74.0432 52.029 74.0482C51.9858 74.0565 51.9409 74.0632 51.896 74.0715C51.871 74.0748 51.8478 74.0798 51.8228 74.0831C51.7696 74.0914 51.7147 74.0998 51.6615 74.1081C51.6449 74.1097 51.6299 74.1131 51.6133 74.1147C51.5435 74.1247 51.4719 74.1347 51.4004 74.143C51.3822 74.1447 51.3655 74.1463 51.3472 74.1496C51.294 74.1563 51.2391 74.1629 51.1859 74.1679C51.1593 74.1713 51.1327 74.1729 51.1078 74.1762C51.0612 74.1812 51.0147 74.1862 50.9681 74.1896C50.9382 74.1929 50.9099 74.1945 50.88 74.1962C50.8351 74.1995 50.7902 74.2029 50.7453 74.2062C50.7153 74.2078 50.6837 74.2112 50.6538 74.2128C50.6089 74.2162 50.564 74.2178 50.5191 74.2211C50.4892 74.2228 50.4576 74.2245 50.4277 74.2261C50.3811 74.2278 50.3345 74.2311 50.2863 74.2328C50.2564 74.2328 50.2281 74.2344 50.1982 74.2361C50.1466 74.2378 50.0934 74.2394 50.0419 74.2394C50.0169 74.2394 49.992 74.2394 49.967 74.2411C49.8889 74.2411 49.8107 74.2428 49.7326 74.2428C49.6544 74.2428 49.5763 74.2428 49.4998 74.2411C49.4748 74.2411 49.4499 74.2411 49.4249 74.2394C49.3734 74.2394 49.3202 74.2378 49.2686 74.2361C49.2404 74.2361 49.2104 74.2344 49.1822 74.2328C49.1339 74.2311 49.0874 74.2295 49.0408 74.2261C49.0109 74.2261 48.9826 74.2228 48.9527 74.2211C48.9061 74.2178 48.8596 74.2162 48.8147 74.2128C48.7864 74.2112 48.7581 74.2095 48.7299 74.2062C48.6816 74.2029 48.6334 74.1979 48.5868 74.1945C48.5619 74.1929 48.5353 74.1895 48.5104 74.1879C48.4522 74.1829 48.394 74.1762 48.3374 74.1713C48.3241 74.1713 48.3091 74.1679 48.2958 74.1663C48.2243 74.158 48.1528 74.1496 48.083 74.1413C48.0647 74.1397 48.0464 74.1363 48.0281 74.1347C47.9766 74.128 47.925 74.1214 47.8735 74.1131C47.8485 74.1097 47.8236 74.1047 47.7986 74.1014C47.7537 74.0948 47.7105 74.0881 47.6656 74.0798C47.639 74.0748 47.6124 74.0715 47.5875 74.0665C47.5442 74.0598 47.5026 74.0515 47.4611 74.0432C47.4345 74.0382 47.4095 74.0332 47.3846 74.0283C47.3413 74.0199 47.2981 74.0116 47.2565 74.0033C47.2333 73.9983 47.21 73.9933 47.185 73.9883C47.1368 73.9784 47.0886 73.9667 47.042 73.9567C47.0254 73.9534 47.0071 73.9484 46.9905 73.9451C46.9256 73.9301 46.8608 73.9152 46.7976 73.8985C46.7893 73.8969 46.781 73.8936 46.7726 73.8919C46.7178 73.8786 46.6629 73.8636 46.608 73.8487C46.5881 73.8437 46.5681 73.837 46.5465 73.832C46.5049 73.8204 46.4617 73.8088 46.4201 73.7954C46.3968 73.7888 46.3752 73.7821 46.3519 73.7755C46.312 73.7638 46.2738 73.7522 46.2339 73.7389C46.2106 73.7323 46.189 73.7239 46.1657 73.7173C46.1274 73.704 46.0875 73.6923 46.0493 73.679C46.0277 73.6724 46.0061 73.6641 45.9844 73.6574C45.9429 73.6425 45.9013 73.6275 45.8597 73.6142C45.8431 73.6075 45.8248 73.6026 45.8082 73.5959C45.6901 73.5527 45.5754 73.5078 45.4623 73.4612C45.4473 73.4546 45.4324 73.4496 45.4174 73.4429C45.3758 73.4263 45.3342 73.408 45.2943 73.3897C45.276 73.3814 45.2561 73.3731 45.2378 73.3648C45.2012 73.3481 45.1646 73.3315 45.128 73.3149C45.1081 73.3066 45.0881 73.2966 45.0698 73.2883C45.0349 73.2716 44.9983 73.255 44.9634 73.2384C44.9451 73.2301 44.9252 73.2201 44.9069 73.2118C44.8703 73.1935 44.8337 73.1752 44.7971 73.1569C44.7805 73.1486 44.7655 73.1403 44.7489 73.132C44.704 73.1087 44.6591 73.0854 44.6142 73.0605C44.6076 73.0571 44.6009 73.0538 44.5943 73.0488C44.5411 73.0205 44.4895 72.9923 44.438 72.9623C44.4296 72.9574 44.4213 72.9524 44.413 72.949C44.3714 72.9258 44.3282 72.9008 44.2866 72.8759C44.2717 72.8676 44.2567 72.8576 44.2417 72.8493C44.2068 72.8293 44.1719 72.8077 44.1386 72.7861C44.122 72.7761 44.1054 72.7661 44.0887 72.7561C44.0555 72.7362 44.0239 72.7146 43.9906 72.6946C43.974 72.6846 43.9574 72.673 43.9424 72.663C43.9092 72.6414 43.8759 72.6198 43.8443 72.5982C43.8293 72.5882 43.816 72.5782 43.8011 72.5699C43.7628 72.545 43.7262 72.5184 43.6897 72.4934C43.6813 72.4868 43.6714 72.4801 43.663 72.4751C43.5699 72.4086 43.4785 72.3421 43.3903 72.2739C43.3804 72.2656 43.3687 72.2573 43.3587 72.249C43.3255 72.224 43.2922 72.1974 43.259 72.1708C43.2457 72.1608 43.2324 72.1492 43.2191 72.1392C43.1891 72.1143 43.1592 72.091 43.1293 72.066C43.116 72.0544 43.1027 72.0428 43.0877 72.0328C43.0578 72.0078 43.0278 71.9829 42.9996 71.958C42.9863 71.948 42.9746 71.9363 42.9613 71.9264C42.9297 71.8981 42.8981 71.8715 42.8665 71.8432C42.8565 71.8349 42.8482 71.8266 42.8383 71.8183C42.7551 71.7451 42.6753 71.6686 42.5955 71.5938C42.5888 71.5871 42.5838 71.5821 42.5772 71.5755C42.5439 71.5439 42.5123 71.5123 42.4807 71.4807C42.4708 71.4707 42.4608 71.4591 42.4491 71.4491C42.4209 71.4208 42.3943 71.3926 42.366 71.3643C42.3544 71.3527 42.3427 71.341 42.3327 71.3294C42.3061 71.3011 42.2795 71.2745 42.2529 71.2462C42.2429 71.2346 42.2313 71.223 42.2213 71.2113C42.1931 71.1814 42.1665 71.1515 42.1398 71.1215C42.1315 71.1116 42.1232 71.1032 42.1132 71.0933C42.08 71.0567 42.0467 71.0184 42.0135 70.9802C42.0118 70.9785 42.0101 70.9752 42.0085 70.9735C41.9719 70.932 41.9353 70.8904 41.9004 70.8472C41.8671 70.8072 41.8339 70.7673 41.8006 70.7258C41.7923 70.7158 41.7857 70.7075 41.779 70.6975C41.7524 70.6659 41.7275 70.6343 41.7025 70.601C41.6942 70.5894 41.6842 70.5778 41.6759 70.5661C41.6526 70.5362 41.6277 70.5046 41.6044 70.4747C41.5961 70.463 41.5861 70.4514 41.5778 70.4397C41.5545 70.4081 41.5296 70.3766 41.5063 70.345C41.498 70.335 41.4913 70.3233 41.483 70.3134C41.4564 70.2768 41.4298 70.2402 41.4032 70.2036C41.3999 70.1986 41.3949 70.1936 41.3915 70.187C41.33 70.1005 41.2685 70.014 41.2103 69.9259C41.2053 69.9193 41.202 69.9126 41.197 69.906C41.172 69.8694 41.1488 69.8328 41.1255 69.7979C41.1188 69.7879 41.1122 69.7763 41.1039 69.7663C41.0823 69.733 41.0623 69.7014 41.0407 69.6682C41.0324 69.6565 41.0257 69.6449 41.0191 69.6333C40.9991 69.6 40.9775 69.5684 40.9575 69.5351C40.9509 69.5235 40.9442 69.5135 40.9376 69.5019C40.916 69.4653 40.8943 69.4304 40.8727 69.3938C40.8677 69.3855 40.8628 69.3788 40.8594 69.3705C40.8062 69.2807 40.7547 69.1909 40.7048 69.1011C40.7048 69.0978 40.7015 69.0961 40.6998 69.0928C40.6765 69.0512 40.6532 69.0097 40.6316 68.9681C40.6266 68.9581 40.6216 68.9481 40.6166 68.9398C40.5984 68.9049 40.5801 68.87 40.5618 68.8351C40.5551 68.8234 40.5501 68.8118 40.5435 68.8001C40.5252 68.7669 40.5086 68.7336 40.4919 68.6987C40.4869 68.6871 40.4803 68.6754 40.4753 68.6655C40.457 68.6305 40.4404 68.5956 40.4221 68.559C40.4171 68.5507 40.4138 68.5407 40.4088 68.5324C40.3872 68.4892 40.3672 68.4459 40.3456 68.4027C40.3456 68.4027 40.3456 68.4011 40.3456 68.3994C40.3024 68.3079 40.2591 68.2165 40.2176 68.125C40.2142 68.1167 40.2109 68.1084 40.2076 68.1017C40.1909 68.0651 40.1743 68.0286 40.1594 67.992C40.1544 67.9803 40.1494 67.9687 40.1444 67.9587C40.1294 67.9255 40.1145 67.8922 40.1012 67.8573C40.0962 67.8456 40.0912 67.834 40.0862 67.8224C40.0712 67.7874 40.0579 67.7542 40.0429 67.7193C40.038 67.7093 40.0346 67.6977 40.0296 67.6877C40.013 67.6494 39.9981 67.6095 39.9831 67.5713C39.9814 67.5663 39.9781 67.5613 39.9764 67.5546C39.9399 67.4648 39.9049 67.3734 39.8717 67.2836C39.87 67.2769 39.8667 67.272 39.865 67.2653C39.8501 67.2271 39.8368 67.1888 39.8234 67.1522C39.8201 67.1422 39.8151 67.1306 39.8118 67.1206C39.8002 67.0874 39.7869 67.0541 39.7752 67.0209C39.7702 67.0092 39.7669 66.9976 39.7619 66.9859C39.7503 66.9527 39.7386 66.9211 39.727 66.8878C39.7237 66.8762 39.7187 66.8645 39.7154 66.8546C39.7037 66.8196 39.6921 66.7847 39.6804 66.7498C39.6771 66.7415 39.6755 66.7332 39.6721 66.7249C39.6422 66.6367 39.6139 66.5486 39.5873 66.4621C39.5873 66.4588 39.5857 66.4555 39.584 66.4538C39.5724 66.4139 39.5591 66.3757 39.5474 66.3357C39.5441 66.3258 39.5408 66.3158 39.5374 66.3058C39.5275 66.2742 39.5175 66.2426 39.5092 66.211C39.5058 66.1977 39.5025 66.1861 39.4975 66.1728C39.4892 66.1429 39.4792 66.1129 39.4709 66.083C39.4676 66.0697 39.4643 66.058 39.4593 66.0447C39.451 66.0148 39.4426 65.9849 39.4343 65.9533C39.431 65.9416 39.4277 65.9317 39.4244 65.92C39.4144 65.8851 39.4044 65.8485 39.3944 65.8136C39.3944 65.8086 39.3911 65.8036 39.3894 65.7986C39.3678 65.7155 39.3462 65.634 39.3246 65.5525C39.3213 65.5426 39.3196 65.5326 39.3163 65.5226C39.3096 65.4927 39.3013 65.4627 39.2947 65.4345C39.2913 65.4212 39.288 65.4095 39.2847 65.3962C39.278 65.3696 39.2714 65.343 39.2647 65.3164C39.2614 65.3031 39.2581 65.2898 39.2547 65.2765C39.2481 65.2499 39.2431 65.2233 39.2365 65.1983C39.2331 65.185 39.2298 65.1734 39.2281 65.1601C39.2215 65.1318 39.2148 65.1052 39.2098 65.0769C39.2082 65.067 39.2049 65.0553 39.2032 65.0453C39.1866 64.9689 39.1699 64.894 39.155 64.8209C39.1533 64.8092 39.15 64.7992 39.1483 64.7876C39.1433 64.7627 39.1383 64.7361 39.1334 64.7111C39.13 64.6978 39.1284 64.6828 39.125 64.6695C39.12 64.6479 39.1167 64.6246 39.1117 64.603C39.1084 64.5881 39.1067 64.5748 39.1034 64.5598C39.1001 64.5382 39.0951 64.5182 39.0918 64.4966C39.0885 64.4816 39.0868 64.4667 39.0835 64.4534C39.0801 64.4334 39.0752 64.4118 39.0718 64.3918C39.0685 64.3769 39.0668 64.3636 39.0635 64.3503C39.0602 64.3286 39.0552 64.307 39.0519 64.2854C39.0502 64.2738 39.0469 64.2605 39.0452 64.2488C39.0402 64.2172 39.0336 64.184 39.0286 64.1524C39.0269 64.1374 39.0236 64.1241 39.0219 64.1092C39.0186 64.0909 39.0153 64.0726 39.0136 64.0543C39.0103 64.0376 39.0086 64.0227 39.0053 64.006C39.002 63.9911 39.0003 63.9745 38.9987 63.9595C38.9953 63.9429 38.9937 63.9262 38.9903 63.9096C38.9887 63.8946 38.9854 63.8813 38.9837 63.8664C38.982 63.8497 38.9787 63.8331 38.977 63.8181C38.9754 63.8048 38.9737 63.7899 38.9704 63.7766C38.9687 63.7599 38.9654 63.7433 38.9637 63.7267C38.9621 63.715 38.9604 63.7034 38.9587 63.6901C38.9571 63.6718 38.9538 63.6552 38.9521 63.6369C38.9521 63.6336 38.9521 63.6319 38.9521 63.6286C38.9454 63.582 38.9405 63.5371 38.9338 63.4939C38.9338 63.4889 38.9338 63.4822 38.9321 63.4773C38.9305 63.4573 38.9272 63.439 38.9255 63.419C38.9255 63.4124 38.9238 63.4041 38.9222 63.3974C38.9205 63.3791 38.9172 63.3609 38.9155 63.3426C38.9155 63.3359 38.9139 63.3276 38.9122 63.3209C38.9105 63.3026 38.9072 63.2844 38.9055 63.2661C38.9055 63.2594 38.9055 63.2544 38.9039 63.2478C38.9022 63.2295 38.8989 63.2095 38.8972 63.1912C38.8972 63.1879 38.8972 63.1846 38.8972 63.1829C38.8856 63.0715 38.8756 62.9684 38.8673 62.877C38.5414 62.9801 38.2204 63.0848 37.9111 63.1962C38.3202 66.4655 40.2874 74.996 49.7143 74.996L49.7043 75.001Z" fill="#FCAF17"/>
<path d="M49.3903 68.895C48.7351 68.4777 48.1731 67.9405 47.6509 67.3702C45.8118 65.3265 44.5796 62.7856 43.8296 60.1549C43.8163 60.11 43.8429 60.0635 43.8878 60.0518C43.931 60.0402 43.9743 60.0635 43.9892 60.1034C44.2902 60.9199 44.6145 61.723 44.9787 62.5096C45.702 64.076 46.585 65.5793 47.6742 66.9195C48.1498 67.5032 48.6636 68.0619 49.234 68.5525C49.3155 68.6223 49.4003 68.6938 49.4851 68.7554C49.5682 68.8169 49.4851 68.9499 49.3903 68.895Z" fill="#594A42"/>
<path d="M49.7269 68.7533C50.407 68.2261 50.9923 67.5843 51.5361 66.9208C51.9385 66.4236 52.3243 65.8865 52.6702 65.3477C53.7261 63.7097 54.5243 61.9238 55.2194 60.1046C55.236 60.0614 55.2842 60.0398 55.3291 60.0564C55.3691 60.0714 55.3907 60.1163 55.3807 60.1562C55.1579 61.0026 54.8652 61.8323 54.5243 62.6405C53.6596 64.6559 52.469 66.5682 50.861 68.0748C50.5334 68.3758 50.1991 68.6568 49.82 68.8963C49.7801 68.9212 49.7286 68.9079 49.7036 68.8697C49.6787 68.8314 49.6903 68.7799 49.7286 68.7549L49.7269 68.7533Z" fill="#594A42"/>
<path d="M49.5884 72.4443C50.5417 72.4443 51.3145 71.6715 51.3145 70.7183C51.3145 69.765 50.5417 68.9922 49.5884 68.9922C48.6351 68.9922 47.8623 69.765 47.8623 70.7183C47.8623 71.6715 48.6351 72.4443 49.5884 72.4443Z" fill="#F5940D"/>
<path d="M50.1154 68.9932C50.1154 69.2842 49.8793 69.5187 49.5899 69.5187C49.3006 69.5187 49.0645 69.2826 49.0645 68.9932C49.0645 68.7039 49.3006 68.4678 49.5899 68.4678C49.8793 68.4678 50.1154 68.7039 50.1154 68.9932Z" fill="#F5940D"/>
<path d="M49.5884 72.4443C50.5417 72.4443 51.3145 71.6715 51.3145 70.7183C51.3145 69.765 50.5417 68.9922 49.5884 68.9922C48.6351 68.9922 47.8623 69.765 47.8623 70.7183C47.8623 71.6715 48.6351 72.4443 49.5884 72.4443Z" fill="#F5940D"/>
<g style="mix-blend-mode:multiply" opacity="0.5">
<path d="M49.5901 69.7485C49.941 69.7485 50.227 69.4658 50.232 69.115C50.0341 69.0351 49.8163 68.9902 49.5901 68.9902C49.364 68.9902 49.1461 69.0351 48.9482 69.115C48.9532 69.4658 49.2392 69.7485 49.5901 69.7485Z" fill="#F5940D"/>
</g>
<path d="M50.1154 68.9932C50.1154 69.2842 49.8793 69.5187 49.5899 69.5187C49.3006 69.5187 49.0645 69.2826 49.0645 68.9932C49.0645 68.7039 49.3006 68.4678 49.5899 68.4678C49.8793 68.4678 50.1154 68.7039 50.1154 68.9932Z" fill="#F5940D"/>
<path d="M66.6327 65.9734C65.1494 64.7744 63.3801 63.9779 61.6124 63.2944C61.0953 63.0949 60.5415 62.922 59.9795 62.749C57.2341 66.1563 50.664 76.6324 48.5488 80.0314C49.1242 80.043 49.7162 80.043 50.3215 80.0264C64.0968 79.6739 69.0389 73.0389 69.591 72.2324L69.6425 71.973C69.591 69.5752 68.4968 67.4799 66.631 65.9734H66.6327Z" fill="#968F37"/>
<g style="mix-blend-mode:screen" opacity="0.3">
<path d="M66.6327 65.9734C65.1494 64.7744 63.3801 63.9779 61.6124 63.2944C61.0953 63.0949 60.5415 62.922 59.9795 62.749C57.2341 66.1563 50.664 76.6324 48.5488 80.0314C49.1242 80.043 49.7162 80.043 50.3215 80.0264C64.0968 79.6739 69.0389 73.0389 69.591 72.2324L69.6425 71.973C69.591 69.5752 68.4968 67.4799 66.631 65.9734H66.6327Z" fill="#968F37"/>
</g>
<path d="M57.1121 65.2921C57.0739 65.3453 57.034 65.3986 56.9957 65.4534C56.9176 65.5615 56.8394 65.6713 56.7596 65.781C56.6798 65.8924 56.6 66.0039 56.5185 66.1186C56.437 66.2317 56.3555 66.3481 56.2724 66.4628C56.2308 66.521 56.1892 66.5792 56.1477 66.6374C56.0645 66.7555 55.9814 66.8735 55.8966 66.9933C55.7702 67.1729 55.6422 67.3558 55.5141 67.5387C55.3861 67.7233 55.2564 67.9095 55.125 68.0974C55.0385 68.2221 54.9504 68.3485 54.8623 68.4766C54.7309 68.6661 54.5979 68.859 54.4665 69.0519C54.2902 69.3097 54.1123 69.5691 53.9344 69.8285C53.8013 70.0247 53.6666 70.2193 53.5336 70.4171C53.4006 70.6134 53.2676 70.8112 53.1329 71.0075C53.0447 71.1388 52.9549 71.2702 52.8668 71.4016C52.7338 71.5978 52.6024 71.794 52.471 71.9902C52.3397 72.1865 52.2083 72.381 52.0786 72.5756C52.0354 72.6404 51.9921 72.7053 51.9489 72.7701C50.8697 74.3831 49.8537 75.9246 49.0255 77.1884C48.1791 78.4821 47.5289 79.4849 47.208 79.9804C47.6453 80.0053 48.0927 80.0236 48.55 80.0336C50.6651 76.6347 57.2352 66.1585 59.9806 62.7513C59.7395 62.6764 59.4967 62.6016 59.2539 62.5234C58.6985 63.1636 57.9569 64.1314 57.1121 65.2921Z" fill="#FCAF17"/>
<g style="mix-blend-mode:multiply" opacity="0.3">
<path d="M67.6317 66.9173C67.0663 69.5097 65.6196 71.881 63.7489 73.7667C61.4458 76.0881 58.416 77.5714 55.2465 78.2947C51.9424 79.0497 48.5235 78.9549 45.2576 78.0602C41.9085 77.144 38.8355 75.393 36.12 73.2495C34.0647 71.6282 32.0809 69.503 31.6702 66.874C30.3565 68.3124 29.6182 70.1266 29.6182 72.1487C29.6182 72.1487 35.4116 80.4049 50.3244 80.0241C64.9927 79.6483 69.6471 72.1487 69.6471 72.1487C69.6471 70.1466 68.9237 68.3473 67.6333 66.9156L67.6317 66.9173Z" fill="#968F37"/>
</g>
<path d="M60.0699 40.9C60.1015 40.8069 61.5349 37.1402 63.6219 37.7106C64.4267 37.9301 64.6179 38.7399 64.583 39.4916C64.5331 40.5891 64.1423 41.783 63.6052 42.7392C63.1114 43.6205 62.383 44.3904 61.4152 44.738C60.8781 44.9309 59.6958 45.2784 59.3665 44.5683C59.2485 44.3139 59.305 44.0013 59.3832 43.7436C60.0317 41.5918 60.0699 40.8984 60.0699 40.8984V40.9Z" fill="#E9934A"/>
<g style="mix-blend-mode:multiply">
<path d="M61.9072 43.2784C61.9072 43.2784 63.0163 43.2501 63.7015 41.7785C64.3866 40.3085 64.2086 38.491 63.3273 38.5109C62.446 38.5309 60.9111 40.947 60.9111 40.947C60.9111 40.947 61.9205 41.3927 61.1556 42.3305C61.1556 42.3305 62.7087 42.0861 62.6921 41.1632C62.6755 40.2403 61.7426 40.1987 61.7426 40.1987C61.7426 40.1987 63.0945 38.5608 63.6333 39.0347C64.172 39.5086 63.4354 42.9891 61.9072 43.2767V43.2784Z" fill="#E9934A"/>
</g>
<path d="M60.577 49.4831C61.2851 49.4831 61.8591 48.9091 61.8591 48.201C61.8591 47.493 61.2851 46.9189 60.577 46.9189C59.8689 46.9189 59.2949 47.493 59.2949 48.201C59.2949 48.9091 59.8689 49.4831 60.577 49.4831Z" fill="#F5940D"/>
<path d="M60.5763 47.3099C60.7921 47.3099 60.9671 47.1349 60.9671 46.9191C60.9671 46.7033 60.7921 46.5283 60.5763 46.5283C60.3605 46.5283 60.1855 46.7033 60.1855 46.9191C60.1855 47.1349 60.3605 47.3099 60.5763 47.3099Z" fill="#F5940D"/>
<path d="M60.1855 45.4912C60.1855 46.0499 60.3601 46.5039 60.5763 46.5039C60.7925 46.5039 60.9671 46.0499 60.9671 45.4912C60.9671 44.9325 60.7925 44.4785 60.5763 44.4785C60.3601 44.4785 60.1855 44.9325 60.1855 45.4912Z" fill="#F5940D"/>
<path d="M60.577 49.4831C61.2851 49.4831 61.8591 48.9091 61.8591 48.201C61.8591 47.493 61.2851 46.9189 60.577 46.9189C59.8689 46.9189 59.2949 47.493 59.2949 48.201C59.2949 48.9091 59.8689 49.4831 60.577 49.4831Z" fill="#F5940D"/>
<g style="mix-blend-mode:multiply" opacity="0.5">
<path d="M60.5759 47.479C60.3148 47.479 60.102 47.2695 60.0986 47.0085C60.2466 46.9486 60.4063 46.917 60.5759 46.917C60.7455 46.917 60.9051 46.9503 61.0531 47.0085C61.0498 47.2695 60.837 47.479 60.5759 47.479Z" fill="#F5940D"/>
</g>
<path d="M60.5763 47.3099C60.7921 47.3099 60.9671 47.1349 60.9671 46.9191C60.9671 46.7033 60.7921 46.5283 60.5763 46.5283C60.3605 46.5283 60.1855 46.7033 60.1855 46.9191C60.1855 47.1349 60.3605 47.3099 60.5763 47.3099Z" fill="#F5940D"/>
<path d="M38.64 40.9C38.6084 40.8069 37.175 37.1402 35.0881 37.7106C34.2832 37.9301 34.092 38.7399 34.1269 39.4916C34.1768 40.5891 34.5676 41.783 35.1047 42.7392C35.5986 43.6205 36.3269 44.3904 37.2947 44.738C37.8318 44.9309 39.0141 45.2784 39.3434 44.5683C39.4615 44.3139 39.4049 44.0013 39.3268 43.7436C38.6782 41.5918 38.64 40.8984 38.64 40.8984V40.9Z" fill="#E9934A"/>
<g style="mix-blend-mode:multiply">
<path d="M36.8026 43.2784C36.8026 43.2784 35.6934 43.2501 35.0083 41.7785C34.3232 40.3068 34.5011 38.491 35.3825 38.5109C36.2638 38.5309 37.7986 40.947 37.7986 40.947C37.7986 40.947 36.7893 41.3927 37.5542 42.3305C37.5542 42.3305 36.0011 42.0861 36.0177 41.1632C36.0343 40.2403 36.9672 40.1987 36.9672 40.1987C36.9672 40.1987 35.6153 38.5608 35.0765 39.0347C34.5377 39.5086 35.2744 42.9891 36.8026 43.2767V43.2784Z" fill="#E9934A"/>
</g>
<path d="M38.1366 49.4831C38.8447 49.4831 39.4187 48.9091 39.4187 48.201C39.4187 47.493 38.8447 46.9189 38.1366 46.9189C37.4285 46.9189 36.8545 47.493 36.8545 48.201C36.8545 48.9091 37.4285 49.4831 38.1366 49.4831Z" fill="#F5940D"/>
<path d="M38.1359 47.3099C38.3517 47.3099 38.5267 47.1349 38.5267 46.9191C38.5267 46.7033 38.3517 46.5283 38.1359 46.5283C37.9201 46.5283 37.7451 46.7033 37.7451 46.9191C37.7451 47.1349 37.9201 47.3099 38.1359 47.3099Z" fill="#F5940D"/>
<path d="M38.5267 45.4912C38.5267 46.0499 38.3521 46.5039 38.1359 46.5039C37.9197 46.5039 37.7451 46.0499 37.7451 45.4912C37.7451 44.9325 37.9197 44.4785 38.1359 44.4785C38.3521 44.4785 38.5267 44.9325 38.5267 45.4912Z" fill="#F5940D"/>
<path d="M38.1366 49.4831C38.8447 49.4831 39.4187 48.9091 39.4187 48.201C39.4187 47.493 38.8447 46.9189 38.1366 46.9189C37.4285 46.9189 36.8545 47.493 36.8545 48.201C36.8545 48.9091 37.4285 49.4831 38.1366 49.4831Z" fill="#F5940D"/>
<g style="mix-blend-mode:multiply" opacity="0.5">
<path d="M38.1355 47.479C38.3965 47.479 38.6094 47.2695 38.6127 47.0085C38.4647 46.9486 38.3051 46.917 38.1355 46.917C37.9658 46.917 37.8062 46.9503 37.6582 47.0085C37.6615 47.2695 37.8744 47.479 38.1355 47.479Z" fill="#F5940D"/>
</g>
<path d="M38.1359 47.3099C38.3517 47.3099 38.5267 47.1349 38.5267 46.9191C38.5267 46.7033 38.3517 46.5283 38.1359 46.5283C37.9201 46.5283 37.7451 46.7033 37.7451 46.9191C37.7451 47.1349 37.9201 47.3099 38.1359 47.3099Z" fill="#F5940D"/>
<path d="M61.3592 32.5647C61.3592 32.5647 62.3553 52.7986 49.3582 54.0907H49.3516C36.3561 52.7986 37.3505 32.5647 37.3505 32.5647C37.3505 32.5647 37.9874 21.8291 49.7124 21.8291C61.4374 21.8291 61.3576 32.5647 61.3576 32.5647H61.3592Z" fill="#E9934A"/>
<path d="M49.4075 49.976C51.9534 49.976 52.8896 48.0438 52.8896 48.0438C52.8896 48.0438 50.8193 47.2772 50.5117 47.2157C50.2057 47.1541 49.361 47.5383 49.361 47.5383H49.346C49.346 47.5383 48.5029 47.1541 48.1953 47.2157C47.8893 47.2772 45.8174 48.0438 45.8174 48.0438C45.8174 48.0438 46.7536 49.976 49.2995 49.976H49.4059H49.4075Z" fill="#ED1B34"/>
<path d="M53.2216 47.9788C52.8757 48.1551 52.4866 48.2149 52.1058 48.2465C51.7299 48.2781 51.3342 48.2748 50.9567 48.2465C50.6175 48.3962 49.8575 48.5392 49.3553 48.5176C48.8016 48.5043 48.2512 48.3929 47.734 48.1983C47.2518 48.2781 46.5717 48.2698 46.0346 48.16C45.8467 48.1185 45.6604 48.0669 45.4875 47.9771C45.4825 47.9755 45.4808 47.9688 45.4842 47.9638C45.6721 47.9738 45.8666 48.0154 46.0562 48.032C46.6182 48.1018 47.1836 48.1185 47.7507 48.1218C48.0134 48.2016 48.2811 48.2731 48.5522 48.318C49.3653 48.471 50.1968 48.3546 50.9683 48.0736C51.3392 48.0919 51.7266 48.0985 52.0974 48.0736C52.4733 48.0453 52.8441 48.0087 53.2199 47.9555C53.2299 47.9522 53.2365 47.9688 53.2265 47.9738L53.2216 47.9788Z" fill="#603913"/>
<g opacity="0.55">
<path opacity="0.74" d="M51.057 44.4526C51.057 45.166 50.2954 45.7447 49.3542 45.7447C48.413 45.7447 47.6514 45.166 47.6514 44.4526C47.6514 43.7393 48.413 41.7139 49.3542 41.7139C50.2954 41.7139 51.057 43.7393 51.057 44.4526Z" fill="#E07B70"/>
<g style="mix-blend-mode:multiply" opacity="0.5">
<path d="M49.3542 45.313C48.4994 45.313 47.7944 44.8358 47.673 44.2139C47.6597 44.3037 47.6514 44.3851 47.6514 44.4533C47.6514 45.1667 48.413 45.7454 49.3542 45.7454C50.2954 45.7454 51.057 45.1667 51.057 44.4533C51.057 44.3851 51.0503 44.3037 51.0353 44.2139C50.9123 44.8358 50.2072 45.313 49.3542 45.313Z" fill="#E1A566"/>
</g>
<g style="mix-blend-mode:multiply">
<path d="M47.7869 44.9366C47.7869 44.9366 47.7819 44.9416 47.7803 44.9433C47.9682 45.2925 48.3523 45.5635 48.8296 45.6816C48.6882 45.4488 48.1528 44.6223 47.7869 44.9366Z" fill="#F48587"/>
</g>
<g style="mix-blend-mode:multiply">
<path d="M50.9235 44.9366C50.9235 44.9366 50.9285 44.9416 50.9301 44.9433C50.7422 45.2925 50.3581 45.5635 49.8809 45.6816C50.0222 45.4488 50.5577 44.6223 50.9235 44.9366Z" fill="#F48587"/>
</g>
</g>
<path d="M40.9504 39.1821C40.9504 39.1821 40.7026 39.8689 41.2996 40.2746C41.8966 40.6804 42.4553 41.0845 44.0849 41.1028C44.0849 41.1028 45.4485 40.7851 45.8542 40.4293V40.2114C45.8542 40.2114 44.8648 38.2409 43.1787 38.349C41.4925 38.4571 40.9521 39.1805 40.9521 39.1805L40.9504 39.1821Z" fill="white"/>
<path d="M45.7486 39.0938C44.987 38.0728 43.7016 37.4758 42.4295 37.5972C42.0088 37.6288 41.5914 37.7119 41.179 37.83C41.1674 37.8333 41.1557 37.8267 41.1524 37.815C41.1491 37.805 41.1541 37.7934 41.164 37.7901C41.5581 37.6155 41.9838 37.5007 42.4178 37.4575C43.507 37.3411 44.6295 37.7651 45.3811 38.5616C45.5308 38.7196 45.6704 38.8859 45.7835 39.0705C45.7902 39.0805 45.7868 39.0938 45.7769 39.0988C45.7669 39.1054 45.7553 39.1021 45.7486 39.0921V39.0938Z" fill="#231F20"/>
<path d="M44.0732 41.1332C42.9325 41.2629 41.4957 40.9985 40.917 39.891C40.8987 39.8578 40.9486 39.8262 40.9703 39.8578C41.6919 40.7973 42.9408 41.06 44.0682 41.07C44.1065 41.0667 44.1131 41.1282 44.0732 41.1332Z" fill="#231F20"/>
<path d="M42.3261 40.9093C42.3261 40.9093 41.8555 40.8578 41.4963 41.3533C41.4963 41.3533 41.4697 40.9476 41.9869 40.7646L42.3261 40.9077V40.9093Z" fill="#231F20"/>
<path d="M41.8751 40.7228C41.8751 40.7228 41.5476 40.6496 41.2549 40.9722C41.2549 40.9722 41.2682 40.6845 41.6457 40.5947L41.8735 40.7228H41.8751Z" fill="#231F20"/>
<path d="M41.5427 40.547C41.5427 40.547 41.3248 40.4406 41.0654 40.6168C41.0654 40.6168 41.1236 40.4173 41.403 40.419L41.541 40.547H41.5427Z" fill="#231F20"/>
<path d="M43.9128 40.9661C44.6788 40.7853 45.1532 40.0178 44.9724 39.2518C44.7916 38.4858 44.0241 38.0114 43.2581 38.1922C42.4921 38.373 42.0177 39.1405 42.1985 39.9065C42.3792 40.6725 43.1468 41.1469 43.9128 40.9661Z" fill="#726658"/>
<path d="M42.7686 39.5779C42.7686 40.0302 43.1344 40.396 43.5867 40.396C44.039 40.396 44.4048 40.0302 44.4048 39.5779C44.4048 39.1256 44.039 38.7598 43.5867 38.7598C43.1344 38.7598 42.7686 39.1256 42.7686 39.5779Z" fill="#241F20"/>
<path d="M43.8105 39.2873C43.8105 39.5716 44.0417 39.8011 44.3244 39.8011C44.6071 39.8011 44.8382 39.5716 44.8382 39.2873C44.8382 39.0029 44.6071 38.7734 44.3244 38.7734C44.0417 38.7734 43.8105 39.0029 43.8105 39.2873Z" fill="white"/>
<path d="M45.4344 40.6652L46.1694 40.6536C46.1694 40.6536 45.3679 37.9414 43.1529 37.9414C41.8875 37.9414 41.096 38.3937 41.096 38.3937L40.2379 38.3704L40.7019 38.7097C40.7019 38.7097 40.341 39.1736 39.335 39.127C39.335 39.127 40.2728 39.8737 41.1093 39.4097C41.9457 38.9458 42.7023 38.2906 43.9678 38.6415C45.2332 38.9923 45.8551 40.4274 45.8551 40.4274L45.4377 40.6652H45.4344Z" fill="#231F20"/>
<path d="M38.9424 35.7644C38.9424 35.7644 40.0781 34.8448 41.7294 35.322C43.3823 35.7993 46.1477 37.5536 46.1477 37.5536L46.7596 36.6041L46.3888 35.9539C46.3888 35.9539 46.5867 36.363 46.4187 36.674L46.1443 35.8608L41.7843 34.2129C41.7843 34.2129 40.1131 34.3027 38.9424 35.766V35.7644Z" fill="#231F20"/>
<path d="M46.9111 36.7539L46.3457 37.6003L46.5569 37.6452L46.9859 36.9801L46.9111 36.7539Z" fill="#231F20"/>
<path d="M57.7593 39.1821C57.7593 39.1821 58.0071 39.8689 57.4101 40.2746C56.8131 40.6804 56.2544 41.0845 54.6248 41.1028C54.6248 41.1028 53.2612 40.7851 52.8555 40.4293V40.2114C52.8555 40.2114 53.8449 38.2409 55.5311 38.349C57.2172 38.4571 57.7577 39.1805 57.7577 39.1805L57.7593 39.1821Z" fill="white"/>
<path d="M52.9632 39.0938C53.7248 38.0728 55.0102 37.4758 56.2823 37.5972C56.703 37.6288 57.1204 37.7119 57.5328 37.83C57.5444 37.8333 57.5561 37.8267 57.5594 37.815C57.5627 37.805 57.5577 37.7934 57.5478 37.7901C57.1537 37.6155 56.728 37.5007 56.2939 37.4575C55.2048 37.3411 54.0823 37.7651 53.3307 38.5616C53.181 38.7196 53.0413 38.8859 52.9283 39.0705C52.9216 39.0805 52.9249 39.0938 52.9349 39.0988C52.9449 39.1054 52.9565 39.1021 52.9632 39.0921V39.0938Z" fill="#231F20"/>
<path d="M54.6383 41.1332C55.779 41.2629 57.2158 40.9985 57.7945 39.891C57.8127 39.8578 57.7629 39.8262 57.7412 39.8578C57.0196 40.7973 55.7707 41.06 54.6433 41.07C54.605 41.0667 54.5984 41.1282 54.6383 41.1332Z" fill="#231F20"/>
<path d="M56.3838 40.9093C56.3838 40.9093 56.8544 40.8578 57.2136 41.3533C57.2136 41.3533 57.2402 40.9476 56.723 40.7646L56.3838 40.9077V40.9093Z" fill="#231F20"/>
<path d="M56.835 40.7228C56.835 40.7228 57.1625 40.6496 57.4552 40.9722C57.4552 40.9722 57.4419 40.6845 57.0644 40.5947L56.8366 40.7228H56.835Z" fill="#231F20"/>
<path d="M57.168 40.547C57.168 40.547 57.3858 40.4406 57.6452 40.6168C57.6452 40.6168 57.587 40.4173 57.3077 40.419L57.1696 40.547H57.168Z" fill="#231F20"/>
<path d="M56.531 39.8098C56.6571 39.0329 56.1295 38.3008 55.3526 38.1747C54.5757 38.0486 53.8437 38.5762 53.7176 39.3531C53.5915 40.13 54.119 40.862 54.8959 40.9881C55.6728 41.1142 56.4048 40.5866 56.531 39.8098Z" fill="#726658"/>
<path d="M55.9419 39.5779C55.9419 40.0302 55.5761 40.396 55.1238 40.396C54.6715 40.396 54.3057 40.0302 54.3057 39.5779C54.3057 39.1256 54.6715 38.7598 55.1238 38.7598C55.5761 38.7598 55.9419 39.1256 55.9419 39.5779Z" fill="#241F20"/>
<path d="M54.9007 39.2873C54.9007 39.5716 54.6696 39.8011 54.3869 39.8011C54.1042 39.8011 53.873 39.5716 53.873 39.2873C53.873 39.0029 54.1042 38.7734 54.3869 38.7734C54.6696 38.7734 54.9007 39.0029 54.9007 39.2873Z" fill="white"/>
<path d="M53.277 40.6652L52.542 40.6536C52.542 40.6536 53.3452 37.9414 55.5585 37.9414C56.8239 37.9414 57.6154 38.3937 57.6154 38.3937L58.4735 38.3704L58.0096 38.7097C58.0096 38.7097 58.3704 39.1736 59.3764 39.127C59.3764 39.127 58.4386 39.8737 57.6021 39.4097C56.7657 38.9458 56.0091 38.2906 54.7437 38.6415C53.4782 38.9923 52.8563 40.4274 52.8563 40.4274L53.2737 40.6652H53.277Z" fill="#231F20"/>
<path d="M59.7684 35.7644C59.7684 35.7644 58.6326 34.8448 56.9814 35.322C55.3285 35.7993 52.5631 37.5536 52.5631 37.5536L51.9512 36.6041L52.322 35.9539C52.322 35.9539 52.1241 36.363 52.2921 36.674L52.5664 35.8608L56.9265 34.2129C56.9265 34.2129 58.5977 34.3027 59.7684 35.766V35.7644Z" fill="#231F20"/>
<path d="M51.7985 36.7539L52.3638 37.6003L52.1527 37.6452L51.7236 36.9801L51.7985 36.7539Z" fill="#231F20"/>
<path d="M50.0864 35.4758C50.0864 35.8799 49.7588 36.2075 49.3547 36.2075C48.9506 36.2075 48.623 35.8799 48.623 35.4758C48.623 35.0717 48.9506 34.7441 49.3547 34.7441C49.7588 34.7441 50.0864 35.0717 50.0864 35.4758Z" fill="#BC2B29"/>
<path d="M49.3517 17.9443C49.2619 17.2193 43.4651 14.8713 37.7398 20.5966C32.0145 26.3219 33.7771 31.264 33.7771 31.264C33.7771 31.264 32.0028 33.6436 32.2622 35.807C32.5216 37.9704 34.0365 39.2259 36.5891 38.7054C39.1416 38.1866 43.4684 32.0422 44.9833 28.3207C46.4982 24.5992 49.3534 26.5032 49.3534 26.5032H49.3583C49.3583 26.5032 52.2135 24.5992 53.7284 28.3207C55.2433 32.0422 59.5701 38.1866 62.1226 38.7054C64.6752 39.2242 66.19 37.9704 66.4495 35.807C66.7089 33.6436 64.9346 31.264 64.9346 31.264C64.9346 31.264 66.6972 26.3219 60.9719 20.5966C55.2466 14.8696 49.4515 17.2193 49.36 17.9443" fill="#282E3F"/>
<g style="mix-blend-mode:screen">
<path d="M49.3507 18.661H49.359C49.4488 17.936 55.2456 15.588 60.9709 21.3133C64.305 24.6474 65.0998 27.7154 65.1813 29.6976C65.2628 27.7936 64.739 24.3647 60.9709 20.5966C55.2456 14.8696 49.4504 17.2193 49.359 17.9443H49.3507C49.2609 17.2193 43.4641 14.8713 37.7388 20.5966C33.9707 24.3647 33.4452 27.7936 33.5283 29.6976C33.6098 27.7154 34.4047 24.6474 37.7388 21.3133C43.4641 15.5863 49.2592 17.936 49.3507 18.661Z" fill="#282E3F"/>
</g>
<g style="mix-blend-mode:multiply" opacity="0.4">
<path d="M32.2622 35.8073C32.5216 37.9707 34.0365 39.2262 36.5891 38.7057C39.1416 38.1869 43.4684 32.0425 44.9833 28.321C46.4666 24.6743 49.2386 26.4286 49.35 26.5018C44.2832 22.1018 40.407 34.6466 36.4577 35.35C32.5083 36.0534 33.7771 31.2643 33.7771 31.2643C33.7771 31.2643 32.0028 33.6439 32.2622 35.8073Z" fill="#282E3F"/>
<path d="M62.2419 35.3475C58.2926 34.6441 54.4164 22.101 49.3496 26.4993C49.3496 26.4993 49.3513 26.501 49.3529 26.5026H49.3579C49.3579 26.5026 52.2131 24.5986 53.728 28.3202C55.2429 32.0417 59.5697 38.1861 62.1222 38.7049C64.6747 39.2237 66.1896 37.9699 66.449 35.8065C66.7085 33.6431 64.9342 31.2635 64.9342 31.2635C64.9342 31.2635 64.9342 31.2602 64.9375 31.2535L64.9225 31.2635C64.9225 31.2635 66.1913 36.0526 62.2419 35.3492V35.3475Z" fill="#282E3F"/>
</g>
<path d="M49.2254 27.0188C49.1073 25.4507 49.1572 23.8111 49.1938 22.238C49.2287 20.6682 49.2786 19.0386 49.2087 17.4738L49.2686 17.4639C49.3185 17.6584 49.3667 17.853 49.4116 18.0509C49.7508 19.8252 49.7675 21.646 49.7109 23.4453C49.676 24.2451 49.6111 25.0433 49.4997 25.8365C49.4432 26.2339 49.38 26.6297 49.2869 27.0221L49.227 27.0171L49.2254 27.0188Z" fill="#F5940D"/>
<path d="M49.3153 29.9099C50.0234 29.9099 50.5974 29.3359 50.5974 28.6278C50.5974 27.9197 50.0234 27.3457 49.3153 27.3457C48.6072 27.3457 48.0332 27.9197 48.0332 28.6278C48.0332 29.3359 48.6072 29.9099 49.3153 29.9099Z" fill="#C94545"/>
<path d="M49.3146 27.7386C49.5304 27.7386 49.7054 27.5636 49.7054 27.3478C49.7054 27.132 49.5304 26.957 49.3146 26.957C49.0988 26.957 48.9238 27.132 48.9238 27.3478C48.9238 27.5636 49.0988 27.7386 49.3146 27.7386Z" fill="#C94545"/>
<path d="M49.3153 29.9099C50.0234 29.9099 50.5974 29.3359 50.5974 28.6278C50.5974 27.9197 50.0234 27.3457 49.3153 27.3457C48.6072 27.3457 48.0332 27.9197 48.0332 28.6278C48.0332 29.3359 48.6072 29.9099 49.3153 29.9099Z" fill="#C94545"/>
<g style="mix-blend-mode:multiply" opacity="0.5">
<path d="M49.3142 27.9078C49.5752 27.9078 49.7881 27.6982 49.7914 27.4372C49.6434 27.3773 49.4838 27.3457 49.3142 27.3457C49.1445 27.3457 48.9849 27.379 48.8369 27.4372C48.8402 27.6982 49.0531 27.9078 49.3142 27.9078Z" fill="#C94545"/>
</g>
<path d="M49.3146 27.7386C49.5304 27.7386 49.7054 27.5636 49.7054 27.3478C49.7054 27.132 49.5304 26.957 49.3146 26.957C49.0988 26.957 48.9238 27.132 48.9238 27.3478C48.9238 27.5636 49.0988 27.7386 49.3146 27.7386Z" fill="#C94545"/>
</g>
<g clip-path="url(#clip1_2616_54545)">
<path d="M104.814 28.7645L104.814 28.7647C104.311 36.549 98.1903 42.7838 90.4641 43.2973M104.814 28.7645L90.3463 41.5234M104.814 28.7645C104.906 27.3353 104.906 25.8577 104.814 24.4285L104.814 24.4283C104.311 16.644 98.1903 10.4092 90.4642 9.89567L90.3463 11.6683L90.4642 9.89567C88.0599 9.73585 85.5532 9.73619 83.1538 9.89566L83.1538 9.89567C75.4277 10.4092 69.3073 16.644 68.8042 24.4283L68.8042 24.4284C68.7118 25.8576 68.7118 27.3354 68.8042 28.7646L70.4608 28.6576L68.8042 28.7647C68.9929 31.6844 70.2583 34.2923 71.6343 36.3755L104.814 28.7645ZM90.4641 43.2973L90.3463 41.5234M90.4641 43.2973C90.4642 43.2973 90.4642 43.2973 90.4642 43.2973L90.3463 41.5234M90.4641 43.2973C88.0599 43.4572 85.5531 43.4568 83.1538 43.2973M90.3463 41.5234C88.0206 41.6781 85.5926 41.6777 83.2717 41.5234C82.4725 41.4703 81.6013 41.2796 80.8511 40.9706C80.0163 40.6268 79.5989 40.4549 79.3867 40.4809C79.1747 40.507 78.8672 40.7338 78.2523 41.1871L78.2513 41.1879M83.1538 43.2973C83.1538 43.2973 83.1538 43.2973 83.1538 43.2973L83.2703 41.5447L83.1538 43.2973ZM83.1538 43.2973C82.178 43.2324 81.1164 43.0025 80.1741 42.6145L80.174 42.6144C79.946 42.5205 79.7659 42.4465 79.6202 42.3882M79.6202 42.3882C79.6469 42.3687 79.6727 42.3501 79.6975 42.3322C79.8074 42.2531 79.8825 42.2012 79.9361 42.1665C79.969 42.1452 79.9837 42.1371 79.9837 42.137C79.9837 42.137 79.9758 42.1413 79.9614 42.1481C79.9302 42.1627 79.8012 42.2212 79.6036 42.2454C79.3791 42.273 79.2248 42.2386 79.2108 42.2355L79.2101 42.2353C79.205 42.2342 79.2023 42.2336 79.2023 42.2336C79.2023 42.2337 79.2296 42.2409 79.2957 42.2642C79.3819 42.2945 79.4866 42.3348 79.6202 42.3882ZM79.6202 42.3882C79.5295 42.4542 79.427 42.5298 79.3063 42.6188M79.3063 42.6188C79.3063 42.6187 79.3063 42.6187 79.3064 42.6187L78.2513 41.1879M79.3063 42.6188C77.9213 43.64 76.1715 44.3505 73.7277 44.291M79.3063 42.6188L78.2513 41.1879M78.2513 41.1879L73.7277 44.291M73.7277 44.291L73.771 42.5144L73.7278 44.291C73.7278 44.291 73.7278 44.291 73.7277 44.291Z" fill="#FFCD3B" stroke="white" stroke-width="3.55556"/>
<path d="M90.3463 41.5234C97.163 41.0704 102.593 35.5634 103.04 28.65C103.127 27.2971 103.127 25.8959 103.04 24.543C102.593 17.6296 97.163 12.1227 90.3463 11.6695C88.0206 11.5149 85.5926 11.5153 83.2717 11.6695C76.455 12.1227 71.0251 17.6296 70.5783 24.543C70.4908 25.8959 70.4908 27.2971 70.5783 28.65C70.741 31.1679 71.8546 33.4993 73.1656 35.4679C73.9268 36.8461 73.4244 38.5661 72.6316 40.0686C72.0599 41.152 71.774 41.6937 72.0035 42.085C72.2331 42.4763 72.7457 42.4888 73.771 42.5137C75.7987 42.5631 77.1659 41.9882 78.2513 41.1879C78.8668 40.734 79.1746 40.507 79.3867 40.4809C79.5989 40.4549 80.0163 40.6268 80.8511 40.9706C81.6013 41.2796 82.4725 41.4703 83.2717 41.5234C85.5926 41.6777 88.0206 41.6781 90.3463 41.5234Z" stroke="#C8262C" stroke-width="2.44444" stroke-linejoin="round"/>
<path d="M86.8012 27.0352H86.8159M93.3124 27.0352H93.327M80.29 27.0352H80.3047" stroke="#C8262C" stroke-width="3.25926" stroke-linecap="round" stroke-linejoin="round"/>
</g>
</g>
<defs>
<filter id="filter0_d_2616_54545" x="0.519531" y="0" width="115.846" height="100" filterUnits="userSpaceOnUse" color-interpolation-filters="sRGB">
<feFlood flood-opacity="0" result="BackgroundImageFix"/>
<feColorMatrix in="SourceAlpha" type="matrix" values="0 0 0 0 0 0 0 0 0 0 0 0 0 0 0 0 0 0 127 0" result="hardAlpha"/>
<feOffset dy="6"/>
<feGaussianBlur stdDeviation="5"/>
<feComposite in2="hardAlpha" operator="out"/>
<feColorMatrix type="matrix" values="0 0 0 0 0 0 0 0 0 0 0 0 0 0 0 0 0 0 0.4 0"/>
<feBlend mode="normal" in2="BackgroundImageFix" result="effect1_dropShadow_2616_54545"/>
<feBlend mode="normal" in="SourceGraphic" in2="effect1_dropShadow_2616_54545" result="shape"/>
</filter>
<clipPath id="clip0_2616_54545">
<rect width="40.0289" height="63.1896" fill="white" transform="translate(29.6172 16.8486)"/>
</clipPath>
<clipPath id="clip1_2616_54545">
<rect width="39.1111" height="39.1111" fill="white" transform="translate(67.2539 7.47949)"/>
</clipPath>
</defs>
</svg>
